<svg id="Design_1" data-name="Design 1" xmlns="http://www.w3.org/2000/svg" width="200" height="80" viewBox="0 60 200 80">
  <defs>
    <style>
      .cls-1 {
        fill: #24a2d0;
      }

      .cls-1, .cls-2, .cls-3 {
        fill-rule: evenodd;
      }

      .cls-2 {
        stroke: #24a2d0;
        stroke-width: 1px;
      }

      .cls-3 {
        fill: #fff;
      }
    </style>
  </defs>
  <path id="Hair_Design" data-name="Hair Design" class="cls-1" d="M48.794,125.059a7.391,7.391,0,0,1,.117-1.541,1.707,1.707,0,0,1,1.078-1.257,3.324,3.324,0,0,1,.941-0.163v-0.233h-6.5V122.1a3.387,3.387,0,0,1,.946.163,1.621,1.621,0,0,1,.641.427,1.652,1.652,0,0,1,.437.824,7.734,7.734,0,0,1,.112,1.547v7.5a7.723,7.723,0,0,1-.112,1.546,1.648,1.648,0,0,1-.437.824,1.719,1.719,0,0,1-.636.422,3.174,3.174,0,0,1-.951.168v0.234h6.5v-0.234a3.172,3.172,0,0,1-.951-0.168,1.7,1.7,0,0,1-1.068-1.251,7.4,7.4,0,0,1-.117-1.541V128.8h7.222v3.754A7.4,7.4,0,0,1,55.9,134.1a1.724,1.724,0,0,1-.432.824,1.815,1.815,0,0,1-.646.422,3.174,3.174,0,0,1-.951.168v0.234h6.5v-0.234a3.14,3.14,0,0,1-.941-0.168,1.812,1.812,0,0,1-.646-0.422,1.789,1.789,0,0,1-.432-0.834,7.323,7.323,0,0,1-.117-1.536v-7.5a7.4,7.4,0,0,1,.117-1.541,1.707,1.707,0,0,1,1.078-1.257,3.324,3.324,0,0,1,.941-0.163v-0.233h-6.5V122.1a3.36,3.36,0,0,1,.951.163,1.711,1.711,0,0,1,1.078,1.251,7.412,7.412,0,0,1,.117,1.547v3.265H48.794v-3.265Zm21.478,10.152a0.921,0.921,0,0,1-.493.112,0.81,0.81,0,0,1-.834-0.722,6.766,6.766,0,0,1-.081-1.3v-3.763a4.483,4.483,0,0,0-.082-1.028,1.615,1.615,0,0,0-.825-0.976,4.493,4.493,0,0,0-1.141-.417,5.64,5.64,0,0,0-1.315-.163,5.846,5.846,0,0,0-1.146.117,4.456,4.456,0,0,0-.983.3,1.042,1.042,0,0,0-.734.875,0.769,0.769,0,0,0,.234.574,0.8,0.8,0,0,0,.58.229,0.733,0.733,0,0,0,.732-0.478l0.254-.59a1.31,1.31,0,0,1,.488-0.59,1.326,1.326,0,0,1,.743-0.213,1.528,1.528,0,0,1,.666.152,1.475,1.475,0,0,1,.524.407,2.743,2.743,0,0,1,.448,1.74,2.5,2.5,0,0,1-.122.874,1.222,1.222,0,0,1-.448.55,2.728,2.728,0,0,1-.707.366q-0.422.153-1.307,0.376a6.669,6.669,0,0,0-1.15.382,2.394,2.394,0,0,0-.7.5,1.977,1.977,0,0,0-.539,1.414,1.783,1.783,0,0,0,.657,1.455,2.722,2.722,0,0,0,1.778.539,3.129,3.129,0,0,0,1.538-.366,6.762,6.762,0,0,0,1.029-.8,2.684,2.684,0,0,0,.652.814,1.962,1.962,0,0,0,1.2.356,1.577,1.577,0,0,0,1.678-1.068l-0.173-.1A1.765,1.765,0,0,1,70.273,135.211Zm-2.945-2.757a4.878,4.878,0,0,1-.314,1.974,1.92,1.92,0,0,1-.664.829,1.6,1.6,0,0,1-.938.31,1.175,1.175,0,0,1-.938-0.438,1.655,1.655,0,0,1-.37-1.108,2.124,2.124,0,0,1,.477-1.374,2.74,2.74,0,0,1,.517-0.488,10.6,10.6,0,0,1,1.024-.6,6.841,6.841,0,0,0,1.207-.8v1.7Zm4.5-4.923a1.832,1.832,0,0,1,.7.156,1.087,1.087,0,0,1,.417.41,1.585,1.585,0,0,1,.224.684,14.147,14.147,0,0,1,.051,1.462v2.5q0,0.891-.046,1.361a2.2,2.2,0,0,1-.158.7,1.046,1.046,0,0,1-.427.5,2.646,2.646,0,0,1-.875.227v0.214h4.5v-0.214a2.1,2.1,0,0,1-1.048-.415,1.052,1.052,0,0,1-.315-0.532,4.483,4.483,0,0,1-.081-1.009l-0.01-.77v-5.859l-2.93.366v0.214Zm2.781-4.486a0.905,0.905,0,0,0-.005-1.277,0.954,0.954,0,0,0-1.309,0,0.905,0.905,0,0,0-.005,1.277A0.984,0.984,0,0,0,74.6,123.045Zm5.721,3.906-2.622.366v0.214a1.832,1.832,0,0,1,.7.156,1.086,1.086,0,0,1,.417.41,1.585,1.585,0,0,1,.224.684,14.147,14.147,0,0,1,.051,1.462v2.5q0,0.891-.046,1.361a2.2,2.2,0,0,1-.158.7,1.046,1.046,0,0,1-.427.5,2.646,2.646,0,0,1-.875.227v0.214h4.5v-0.214a2.089,2.089,0,0,1-1.048-.416,1.055,1.055,0,0,1-.315-0.533,4.51,4.51,0,0,1-.081-1.011l-0.01-.773v-1.9a6.446,6.446,0,0,1,.386-2.49,1.208,1.208,0,0,1,1.078-.894,1.184,1.184,0,0,1,.885.4l0.315,0.345a0.78,0.78,0,0,0,.6.285,0.664,0.664,0,0,0,.483-0.183,0.624,0.624,0,0,0,.188-0.468,0.817,0.817,0,0,0-.315-0.65,1.511,1.511,0,0,0-1.007-.3,3.243,3.243,0,0,0-1.923.6,2.961,2.961,0,0,0-.824.966,8.5,8.5,0,0,0-.175-1.565h0Zm11.607,8.8h7.517a14.083,14.083,0,0,0,2.574-.234,5.145,5.145,0,0,0,2.818-1.475,5.713,5.713,0,0,0,1.256-2.07,7.7,7.7,0,0,0,.453-2.65,8.021,8.021,0,0,0-.794-3.555,6.819,6.819,0,0,0-2.217-2.64,7.115,7.115,0,0,0-3.642-1.221q-0.509-.041-2.37-0.04H91.932V122.1a2.443,2.443,0,0,1,1.465.468,1.643,1.643,0,0,1,.534.855,7.018,7.018,0,0,1,.137,1.638v7.5a7.42,7.42,0,0,1-.117,1.541,1.716,1.716,0,0,1-1.073,1.256,3.265,3.265,0,0,1-.946.163v0.234Zm5.595-13.57a8.43,8.43,0,0,1,2.177.234,5.33,5.33,0,0,1,2.7,1.79,6.984,6.984,0,0,1,1.251,2.279,8.557,8.557,0,0,1,.438,2.746,8.207,8.207,0,0,1-.361,2.457,6.494,6.494,0,0,1-1.053,2.05,4.268,4.268,0,0,1-1.592,1.338,5.08,5.08,0,0,1-2.141.412,2.585,2.585,0,0,1-2.116-.794,2.022,2.022,0,0,1-.417-0.885,7.694,7.694,0,0,1-.112-1.516V122.18h1.231Zm19.215,8.036a3.07,3.07,0,0,0-1.913-2.975,3.841,3.841,0,0,0-1.5-.29,4.241,4.241,0,0,0-2.716.946,4.334,4.334,0,0,0-1.638,3.591,4.568,4.568,0,0,0,.865,2.828,3.8,3.8,0,0,0,1.515,1.22,5.269,5.269,0,0,0,2.147.4,3.982,3.982,0,0,0,2.314-.6,2.834,2.834,0,0,0,1.134-1.8l-0.213-.071a2.878,2.878,0,0,1-.629,1.14,2.234,2.234,0,0,1-.816.508,2.955,2.955,0,0,1-1.039.183,3.284,3.284,0,0,1-2.545-1.22,4.221,4.221,0,0,1-.7-1.4,5.89,5.89,0,0,1-.258-1.73c0-.149.013-0.389,0.041-0.722h5.961Zm-5.9-.4a3.354,3.354,0,0,1,.775-1.892,1.967,1.967,0,0,1,1.524-.752,1.782,1.782,0,0,1,.972.289,2.133,2.133,0,0,1,.729.789,3.852,3.852,0,0,1,.375,1.566h-4.375Zm8.87,5.931a0.592,0.592,0,0,1,.539-0.305,0.894,0.894,0,0,1,.234.025q0.092,0.025.54,0.2a3.8,3.8,0,0,0,1.363.264,2.716,2.716,0,0,0,2.034-.814,2.419,2.419,0,0,0,.692-1.77,2.528,2.528,0,0,0-.477-1.536,3.553,3.553,0,0,0-1.441-1.088l-1.076-.489a3.272,3.272,0,0,1-1.112-.737,1.316,1.316,0,0,1-.36-0.9,1.4,1.4,0,0,1,.4-1.012,1.3,1.3,0,0,1,.968-0.412,1.763,1.763,0,0,1,.822.218,2.339,2.339,0,0,1,.73.606,2.24,2.24,0,0,1,.36.569,4.712,4.712,0,0,1,.239.783h0.213l-0.111-2.309h-0.2a0.474,0.474,0,0,1-.366.3,0.822,0.822,0,0,1-.285-0.061l-0.346-.152a2.525,2.525,0,0,0-.966-0.183,2.426,2.426,0,0,0-1.862.753,2.242,2.242,0,0,0-.61,1.576,2.138,2.138,0,0,0,.609,1.506,7.03,7.03,0,0,0,1.7,1.139,11.761,11.761,0,0,1,1.04.6,2.4,2.4,0,0,1,.512.468,1.79,1.79,0,0,1,.366,1.119,1.493,1.493,0,0,1-.508,1.211,1.677,1.677,0,0,1-1.106.386,2.214,2.214,0,0,1-1.826-1.149,5.639,5.639,0,0,1-.711-1.689h-0.163v2.879h0.163Zm7.446-8.219a1.835,1.835,0,0,1,.7.156,1.1,1.1,0,0,1,.417.41,1.6,1.6,0,0,1,.224.684,14.453,14.453,0,0,1,.05,1.462v2.5q0,0.891-.045,1.361a2.23,2.23,0,0,1-.158.7,1.05,1.05,0,0,1-.427.5,2.651,2.651,0,0,1-.875.227v0.214h4.5v-0.214a2.1,2.1,0,0,1-1.048-.415,1.051,1.051,0,0,1-.315-0.532,4.507,4.507,0,0,1-.081-1.009l-0.011-.77v-5.859l-2.929.366v0.214Zm2.78-4.486a0.905,0.905,0,0,0-.005-1.277,0.954,0.954,0,0,0-1.309,0,0.905,0.905,0,0,0,0,1.277A0.983,0.983,0,0,0,129.937,123.045Zm5.53,13.458a0.948,0.948,0,0,0-.29-0.722,1.04,1.04,0,0,0-.748-0.275,1.4,1.4,0,0,0-1.068.473,1.635,1.635,0,0,0-.437,1.154,1.942,1.942,0,0,0,.591,1.445,4.458,4.458,0,0,0,3.147.9,5.377,5.377,0,0,0,3.137-.763,2.4,2.4,0,0,0,1.039-2.065,2.178,2.178,0,0,0-.9-1.861,3.088,3.088,0,0,0-1.07-.494,6.088,6.088,0,0,0-1.5-.157h-1.681q-1.274,0-1.274-.651,0-.743,1.495-0.835,1.092-.07,1.3-0.1a3.541,3.541,0,0,0,1.275-.519,2.4,2.4,0,0,0,1.183-2.106,3.239,3.239,0,0,0-.83-2.075,1.215,1.215,0,0,1,.791-0.376,0.656,0.656,0,0,1,.548.244l0.234,0.305a0.753,0.753,0,0,0,.595.346,0.468,0.468,0,0,0,.36-0.158,0.562,0.562,0,0,0,.143-0.392,0.782,0.782,0,0,0-.367-0.651,1.381,1.381,0,0,0-.805-0.213,2.157,2.157,0,0,0-.831.157,3.845,3.845,0,0,0-.862.534,3.551,3.551,0,0,0-2-.691,3.124,3.124,0,0,0-1.252.264,3.157,3.157,0,0,0-1.059.741,2.578,2.578,0,0,0-.763,1.827,2.429,2.429,0,0,0,.488,1.468,3.441,3.441,0,0,0,1.373,1.071,5.389,5.389,0,0,0-1.261.439,1.287,1.287,0,0,0-.671,1.143,1.449,1.449,0,0,0,.63,1.173,2.567,2.567,0,0,0,1.608.47h1.617a2.716,2.716,0,0,1,1.6.4,1.336,1.336,0,0,1,.56,1.155,1.78,1.78,0,0,1-.84,1.521,3.773,3.773,0,0,1-2.2.585,3.84,3.84,0,0,1-2.106-.529,1.569,1.569,0,0,1-.824-1.353,1.28,1.28,0,0,1,.27-0.845,0.862,0.862,0,0,1,.7-0.325,0.767,0.767,0,0,1,.427.112,1.22,1.22,0,0,1,.346.4l0.183-.051V136.5Zm-0.306-7.7a3.181,3.181,0,0,1,.355-0.893,1.337,1.337,0,0,1,1.176-.731,1.164,1.164,0,0,1,.994.558,3.433,3.433,0,0,1,.527,2.01,3.755,3.755,0,0,1-.405,1.9,1.26,1.26,0,0,1-1.136.685,1.376,1.376,0,0,1-1.181-.69,3.157,3.157,0,0,1-.462-1.787A4.34,4.34,0,0,1,135.161,128.8Zm7.283-1.482v0.214a1.826,1.826,0,0,1,.7.156,1.082,1.082,0,0,1,.417.41,1.573,1.573,0,0,1,.224.684,14.072,14.072,0,0,1,.051,1.462v2.5q0,0.891-.046,1.361a2.207,2.207,0,0,1-.157.7,1.046,1.046,0,0,1-.428.5,2.643,2.643,0,0,1-.874.227v0.214h4.5v-0.214a2.089,2.089,0,0,1-1.048-.416,1.054,1.054,0,0,1-.315-0.533,4.464,4.464,0,0,1-.082-1.012l-0.01-.751v-1.992a10.441,10.441,0,0,1,.1-1.7,2.191,2.191,0,0,1,.4-0.92,1.943,1.943,0,0,1,.777-0.61,2.547,2.547,0,0,1,1.06-.223,2.3,2.3,0,0,1,.964.2,1.533,1.533,0,0,1,.67.554,1.987,1.987,0,0,1,.289.833,12.3,12.3,0,0,1,.077,1.626v2.153q0,0.885-.046,1.357a2.211,2.211,0,0,1-.158.706,1.045,1.045,0,0,1-.427.5,2.647,2.647,0,0,1-.875.228v0.214h4.5v-0.214a2.085,2.085,0,0,1-1.047-.416,1.048,1.048,0,0,1-.316-0.534,4.521,4.521,0,0,1-.081-1.011v-4.308a2.024,2.024,0,0,0-.783-1.707,3.352,3.352,0,0,0-2.1-.609,4.089,4.089,0,0,0-3,1.268v-0.164a4.747,4.747,0,0,0-.143-1.1Z"/>
  <path id="Right_Line" data-name="Right Line" class="cls-2" d="M157,131v-1h38v1H157Z"/>
  <path id="Left_Line" data-name="Left Line" class="cls-2" d="M4,131v-1H42v1H4Z"/>
  <path id="Attitudes" class="cls-3" d="M16.563,101.229a1.149,1.149,0,0,0,.9-0.312,0.6,0.6,0,0,0,0-.709,1.512,1.512,0,0,0-.979-0.625A1.991,1.991,0,0,1,15.4,98.75,2.435,2.435,0,0,1,16.771,95a9.662,9.662,0,0,1,2.688-.417,18.913,18.913,0,0,1,2.958.146,18.707,18.707,0,0,1,2.625.521,6.845,6.845,0,0,1,1.646.625q-2.417,4.125-4.417,6.937A25.131,25.131,0,0,1,18.4,107.25a10.029,10.029,0,0,1-3.792,2.167,8.764,8.764,0,0,1-4.167.083,4.9,4.9,0,0,1-2.812-1.583,7.61,7.61,0,0,1-1.6-3.042,13,13,0,0,1-.437-3.9,16.5,16.5,0,0,1,.667-4.166A14.854,14.854,0,0,1,8,92.958a10.133,10.133,0,0,1,2.771-2.917,7.683,7.683,0,0,1,2.688-1.208,6.682,6.682,0,0,1,2.708-.1,4.937,4.937,0,0,1,2.271,1.042A4.372,4.372,0,0,1,19.854,92a2.024,2.024,0,0,0,.563,1.042,0.543,0.543,0,0,0,.646.125,1.034,1.034,0,0,0,.417-0.708,3.314,3.314,0,0,0-.125-1.5A4.83,4.83,0,0,0,19.6,88.25a7.925,7.925,0,0,0-3.146-1.458,10.786,10.786,0,0,0-3.854-.146,12.038,12.038,0,0,0-3.917,1.229,13.224,13.224,0,0,0-4,3.25,15.835,15.835,0,0,0-2.646,4.458A15.355,15.355,0,0,0,1,100.542a10.925,10.925,0,0,0,.812,4.729,9.564,9.564,0,0,0,2.917,3.791,10.878,10.878,0,0,0,5.25,2.105,11.688,11.688,0,0,0,4.354-.063,12.779,12.779,0,0,0,3.792-1.479,16.986,16.986,0,0,0,3.313-2.563,30.462,30.462,0,0,0,2.9-3.312q1.354-1.792,2.542-3.729t2.271-3.813q1.416,0.5,2.938,1.063a26.06,26.06,0,0,0,2.9.9,2.252,2.252,0,0,1,.292-0.875q0,0.167-.125,1.146t-0.312,2.624a31.583,31.583,0,0,0-.187,3.563,34.89,34.89,0,0,0,.229,3.937,15.4,15.4,0,0,0,.9,3.771,9.407,9.407,0,0,0,1.875,3.063,6.3,6.3,0,0,0,3.167,1.812,5.116,5.116,0,0,0,3.042,0,4.121,4.121,0,0,0,1.938-1.375,3.975,3.975,0,0,0,.792-2.062,4.2,4.2,0,0,0-.333-2.125,3.306,3.306,0,0,0-1.417-1.542,3.623,3.623,0,0,0-2.521-.271,1.705,1.705,0,0,0-.917.354,0.38,0.38,0,0,0-.125.417,0.672,0.672,0,0,0,.333.313,1.04,1.04,0,0,0,.458.125,2.868,2.868,0,0,1,2.417.541,2.046,2.046,0,0,1,.583,1.646A3.207,3.207,0,0,1,44.292,115a2.494,2.494,0,0,1-1.6.958,1.459,1.459,0,0,1-1.333-.646,6.325,6.325,0,0,1-1-2.041,16.679,16.679,0,0,1-.625-3.042,33.55,33.55,0,0,1-.229-3.667,37.137,37.137,0,0,1,.167-3.916,29.859,29.859,0,0,1,.6-3.813l0.083-.083v0.083q1.375-.166,2.813-0.354a14.53,14.53,0,0,0,2.792-.646A9.6,9.6,0,0,0,48.5,96.521a6.952,6.952,0,0,0,2.021-2.4,1.083,1.083,0,0,0,.1-0.687,0.989,0.989,0,0,0-.25-0.542,0.624,0.624,0,0,0-.458-0.187,0.675,0.675,0,0,0-.521.375,7.135,7.135,0,0,1-2.146,2.25,8.456,8.456,0,0,1-2.4,1.063,9.309,9.309,0,0,1-2.333.313q-1.125,0-1.958-.042,0.666-3.25,1.354-6.6t1.292-6.542q0.6-3.187,1.083-6.062t0.688-5.083V70.792a13.181,13.181,0,0,0-.187-2.25,5.581,5.581,0,0,0-.667-1.9,3.555,3.555,0,0,0-1.312-1.292,4.228,4.228,0,0,0-2.125-.479,1.766,1.766,0,0,0-1.146.354,2.235,2.235,0,0,0-.646.813Q38.146,69.417,36.979,73t-2.6,7.188q-1.437,3.6-3.1,7.1T27.9,93.958q-0.834-.208-2.208-0.521a25.409,25.409,0,0,0-2.958-.479,22.674,22.674,0,0,0-3.229-.1,9.461,9.461,0,0,0-2.979.563,5.67,5.67,0,0,0-2.563,1.729,4.2,4.2,0,0,0-.917,2.146,3.579,3.579,0,0,0,.4,2.042,3,3,0,0,0,1.375,1.375A3.927,3.927,0,0,0,16.563,101.229ZM32.521,90.313q1.166-2.1,2.25-4.25t2.1-4.458q1.02-2.313,1.9-4.979-0.667,3.75-1.521,8.75T35.271,96.208q-1.209-.291-2.542-0.687t-2.542-.854Q31.353,92.417,32.521,90.313ZM54.6,83.676q1.541,0.082,3.021.2t3.125,0.2q1.645,0.082,3.813,0a13.333,13.333,0,0,0,2.917-.468,10.574,10.574,0,0,0,2.438-1,7.03,7.03,0,0,0,1.75-1.385,3.428,3.428,0,0,0,.854-1.6,0.247,0.247,0,0,0-.062-0.292,0.519,0.519,0,0,0-.292,0,1.415,1.415,0,0,0-.375.146c-0.125.07-.216,0.118-0.271,0.146a11.2,11.2,0,0,1-2.875,1.958,7.788,7.788,0,0,1-3.375.75q-1.75,0-3.167-.042t-2.9-.1Q57.729,82.125,56,82.063T51.9,82q-0.959,0-1.937.042a7.341,7.341,0,0,0-1.75.269,2.742,2.742,0,0,0-1.25.735,1.851,1.851,0,0,0-.437,1.413,0.611,0.611,0,0,1,.6-0.518,9.16,9.16,0,0,1,1.375-.2,14.6,14.6,0,0,1,1.521-.041,7.333,7.333,0,0,0,1.042-.02Q53.062,83.6,54.6,83.676Zm5.313-11.8a11.678,11.678,0,0,0-2.625,2.563A23.1,23.1,0,0,0,55,78.167a44.284,44.284,0,0,0-1.937,4.5q-0.875,2.375-1.583,4.854t-1.208,4.75q-0.5,2.272-.812,4.229t-0.437,3.292a3.017,3.017,0,0,0-.083.729v1.187a17.472,17.472,0,0,0,.271,3.063,9.094,9.094,0,0,0,.938,2.75,5.405,5.405,0,0,0,1.813,1.979,5.187,5.187,0,0,0,2.9.75,6.165,6.165,0,0,0,3.875-1.542,20.631,20.631,0,0,0,3.729-4.062,50.51,50.51,0,0,0,3.521-5.729q1.708-3.208,3.292-6.542a0.949,0.949,0,0,0-.875-0.708,2.42,2.42,0,0,0-.292.021,0.491,0.491,0,0,0-.292.146q-0.584,1.084-1.375,2.667t-1.75,3.313q-0.959,1.73-2.021,3.416a28.645,28.645,0,0,1-2.187,3.042,12.085,12.085,0,0,1-2.312,2.187,4.088,4.088,0,0,1-2.354.834,1.886,1.886,0,0,1-1.792-.98,6.158,6.158,0,0,1-.667-2.479,15.7,15.7,0,0,1,.083-3.208q0.208-1.708.5-3.208t0.792-3.458a50.262,50.262,0,0,0,3.771-3.75,43.057,43.057,0,0,0,3.479-4.354,28.406,28.406,0,0,0,2.667-4.708,15.084,15.084,0,0,0,1.292-4.812,9.436,9.436,0,0,0-.083-1.729,7.055,7.055,0,0,0-.458-1.75,3.725,3.725,0,0,0-.958-1.375,2.221,2.221,0,0,0-1.542-.562A5.169,5.169,0,0,0,59.917,71.875ZM63.854,74.1a2.671,2.671,0,0,1,.25.75,5.279,5.279,0,0,1,.083.979q0,0.542-.042,1a10.492,10.492,0,0,1-.687,2.792,20.438,20.438,0,0,1-1.4,2.9,30.206,30.206,0,0,1-1.833,2.792q-1,1.355-1.958,2.5t-1.792,2q-0.834.855-1.333,1.313,0.916-3.625,2.021-6.812A53.736,53.736,0,0,1,59.4,78.771a19.549,19.549,0,0,1,2.188-3.687,2.628,2.628,0,0,1,1.854-1.292A0.485,0.485,0,0,1,63.854,74.1Zm7.625,9.572q1.541,0.082,3.021.2t3.125,0.2q1.645,0.082,3.813,0a13.333,13.333,0,0,0,2.917-.468,10.574,10.574,0,0,0,2.438-1,7.03,7.03,0,0,0,1.75-1.385,3.428,3.428,0,0,0,.854-1.6,0.247,0.247,0,0,0-.062-0.292,0.519,0.519,0,0,0-.292,0,1.415,1.415,0,0,0-.375.146c-0.125.07-.216,0.118-0.271,0.146a11.2,11.2,0,0,1-2.875,1.958,7.788,7.788,0,0,1-3.375.75q-1.75,0-3.167-.042t-2.9-.1q-1.479-.063-3.208-0.125T68.771,82q-0.959,0-1.937.042a7.341,7.341,0,0,0-1.75.269,2.742,2.742,0,0,0-1.25.735,1.851,1.851,0,0,0-.437,1.413,0.611,0.611,0,0,1,.6-0.518,9.16,9.16,0,0,1,1.375-.2A14.6,14.6,0,0,1,66.9,83.7a7.333,7.333,0,0,0,1.042-.02Q69.937,83.6,71.479,83.676Zm5.313-11.8a11.678,11.678,0,0,0-2.625,2.563,23.1,23.1,0,0,0-2.292,3.729,44.284,44.284,0,0,0-1.937,4.5q-0.875,2.375-1.583,4.854t-1.208,4.75q-0.5,2.272-.812,4.229T65.9,99.792a3.017,3.017,0,0,0-.083.729v1.187a17.472,17.472,0,0,0,.271,3.063,9.094,9.094,0,0,0,.938,2.75,5.405,5.405,0,0,0,1.813,1.979,5.187,5.187,0,0,0,2.9.75,6.165,6.165,0,0,0,3.875-1.542,20.631,20.631,0,0,0,3.729-4.062,50.524,50.524,0,0,0,3.521-5.729q1.708-3.208,3.292-6.542a0.949,0.949,0,0,0-.875-0.708,2.421,2.421,0,0,0-.292.021,0.491,0.491,0,0,0-.292.146Q84.1,92.917,83.313,94.5t-1.75,3.313q-0.959,1.73-2.021,3.416a28.645,28.645,0,0,1-2.187,3.042,12.085,12.085,0,0,1-2.312,2.187,4.088,4.088,0,0,1-2.354.834,1.886,1.886,0,0,1-1.792-.98,6.158,6.158,0,0,1-.667-2.479,15.7,15.7,0,0,1,.083-3.208q0.208-1.708.5-3.208T71.6,93.958a50.262,50.262,0,0,0,3.771-3.75,43.057,43.057,0,0,0,3.479-4.354,28.406,28.406,0,0,0,2.667-4.708,15.084,15.084,0,0,0,1.292-4.812,9.445,9.445,0,0,0-.083-1.729,7.055,7.055,0,0,0-.458-1.75,3.725,3.725,0,0,0-.958-1.375,2.221,2.221,0,0,0-1.542-.562A5.169,5.169,0,0,0,76.792,71.875ZM80.729,74.1a2.671,2.671,0,0,1,.25.75,5.279,5.279,0,0,1,.083.979q0,0.542-.042,1a10.492,10.492,0,0,1-.687,2.792,20.449,20.449,0,0,1-1.4,2.9A30.206,30.206,0,0,1,77.1,85.313q-1,1.355-1.958,2.5t-1.792,2q-0.834.855-1.333,1.313,0.916-3.625,2.021-6.812a53.759,53.759,0,0,1,2.229-5.542,19.549,19.549,0,0,1,2.188-3.687,2.628,2.628,0,0,1,1.854-1.292A0.485,0.485,0,0,1,80.729,74.1Zm4.438,14.333q-0.4,1.4-.875,3.167t-0.958,3.813q-0.478,2.042-.792,4.063a32.65,32.65,0,0,0-.375,3.917,12.145,12.145,0,0,0,.313,3.375,5.538,5.538,0,0,0,1.229,2.416,3.433,3.433,0,0,0,2.354,1.063,4.5,4.5,0,0,0,2.75-.646,9.5,9.5,0,0,0,2.417-2.125,20.241,20.241,0,0,0,2.125-3.167q1-1.812,1.875-3.77T96.9,96.583q0.791-2,1.542-3.708,0.083-.208-0.1-0.25a1.61,1.61,0,0,0-.458-0.021,1.938,1.938,0,0,0-.542.125,0.488,0.488,0,0,0-.312.229q-0.209.375-.75,1.646t-1.292,2.958q-0.75,1.688-1.667,3.52a36.731,36.731,0,0,1-1.875,3.334,13.112,13.112,0,0,1-1.917,2.416,1.953,1.953,0,0,1-1.792.709,1.017,1.017,0,0,1-.708-0.729,5.56,5.56,0,0,1-.271-1.355,10.506,10.506,0,0,1-.021-1.479q0.041-.729.083-1.062,0.166-1.459.458-3.209T87.9,96.167q0.333-1.791.708-3.479T89.375,89.6q0.4-1.4.75-2.333a2.779,2.779,0,0,1,.688-1.187q0.5-.416.354-0.687a0.934,0.934,0,0,0-.687-0.375,5.545,5.545,0,0,0-1.312-.062,9.38,9.38,0,0,0-1.521.208,5.035,5.035,0,0,0-1.292.458,1.1,1.1,0,0,0-.625.667Q85.562,87.042,85.167,88.438ZM93.625,76.25a2.894,2.894,0,0,0-.958-0.521,3.868,3.868,0,0,0-1.229-.187,3.02,3.02,0,0,0-1.167.208,2.465,2.465,0,0,0-1.25,1.375,6.911,6.911,0,0,0-.562,2.167,5.4,5.4,0,0,0,.167,2.042,1.282,1.282,0,0,0,.9,1.042,1.872,1.872,0,0,0,1.313-.479,8.3,8.3,0,0,0,1.479-1.417,10.671,10.671,0,0,0,1.208-1.792,3.555,3.555,0,0,0,.5-1.6A1.047,1.047,0,0,0,93.625,76.25Zm7.812,7.426q1.542,0.082,3.021.2t3.125,0.2q1.646,0.082,3.813,0a13.342,13.342,0,0,0,2.917-.468,10.573,10.573,0,0,0,2.437-1,7.028,7.028,0,0,0,1.75-1.385,3.428,3.428,0,0,0,.854-1.6,0.246,0.246,0,0,0-.062-0.292,0.521,0.521,0,0,0-.292,0,1.415,1.415,0,0,0-.375.146c-0.125.07-.215,0.118-0.271,0.146a11.189,11.189,0,0,1-2.875,1.958,7.788,7.788,0,0,1-3.375.75q-1.749,0-3.166-.042t-2.9-.1q-1.48-.063-3.209-0.125T98.729,82q-0.959,0-1.937.042a7.339,7.339,0,0,0-1.75.269,2.741,2.741,0,0,0-1.25.735,1.85,1.85,0,0,0-.437,1.413,0.611,0.611,0,0,1,.6-0.518,9.162,9.162,0,0,1,1.375-.2,14.6,14.6,0,0,1,1.521-.041,7.332,7.332,0,0,0,1.042-.02Q99.9,83.6,101.437,83.676Zm5.313-11.8a11.678,11.678,0,0,0-2.625,2.563,23.132,23.132,0,0,0-2.292,3.729,44.329,44.329,0,0,0-1.937,4.5q-0.875,2.375-1.583,4.854T97.1,92.271q-0.5,2.272-.812,4.229t-0.437,3.292a3.012,3.012,0,0,0-.083.729v1.187a17.462,17.462,0,0,0,.271,3.063,9.094,9.094,0,0,0,.938,2.75,5.4,5.4,0,0,0,1.813,1.979,5.187,5.187,0,0,0,2.9.75,6.161,6.161,0,0,0,3.874-1.542,20.634,20.634,0,0,0,3.73-4.062,50.524,50.524,0,0,0,3.52-5.729q1.709-3.208,3.292-6.542a0.948,0.948,0,0,0-.875-0.708,2.435,2.435,0,0,0-.292.021,0.49,0.49,0,0,0-.291.146q-0.584,1.084-1.375,2.667t-1.75,3.313q-0.959,1.73-2.021,3.416a28.587,28.587,0,0,1-2.187,3.042A12.1,12.1,0,0,1,105,106.458a4.089,4.089,0,0,1-2.354.834,1.887,1.887,0,0,1-1.792-.98,6.158,6.158,0,0,1-.666-2.479,15.674,15.674,0,0,1,.083-3.208q0.209-1.708.5-3.208t0.791-3.458a50.02,50.02,0,0,0,3.771-3.75,42.874,42.874,0,0,0,3.479-4.354,28.315,28.315,0,0,0,2.667-4.708,15.077,15.077,0,0,0,1.292-4.812,9.5,9.5,0,0,0-.083-1.729,7.082,7.082,0,0,0-.459-1.75,3.714,3.714,0,0,0-.958-1.375,2.222,2.222,0,0,0-1.542-.562A5.168,5.168,0,0,0,106.75,71.875Zm3.938,2.229a2.69,2.69,0,0,1,.25.75,5.306,5.306,0,0,1,.083.979q0,0.542-.042,1a10.479,10.479,0,0,1-.687,2.792,20.484,20.484,0,0,1-1.4,2.9,30.132,30.132,0,0,1-1.834,2.792q-1,1.355-1.958,2.5t-1.791,2q-0.834.855-1.334,1.313Q102.9,87.5,104,84.313a53.828,53.828,0,0,1,2.229-5.542,19.511,19.511,0,0,1,2.188-3.687,2.627,2.627,0,0,1,1.854-1.292A0.485,0.485,0,0,1,110.688,74.1Zm6.666,10.5a3.817,3.817,0,0,0-1.25-.187,1.834,1.834,0,0,0-.833.188,0.663,0.663,0,0,0-.375.646c0.055,0.223.125,0.458,0.208,0.708a2.513,2.513,0,0,1,.084.958,21.194,21.194,0,0,1-.459,3.313q-0.415,2.063-.916,4.5t-0.98,5a37.827,37.827,0,0,0-.6,4.771l0.042,0.167a6.351,6.351,0,0,0,.854,3.833,3.963,3.963,0,0,0,2.813,1.667,5.393,5.393,0,0,0,2.437-.229,7.435,7.435,0,0,0,2.188-1.167,8.07,8.07,0,0,0,1.729-1.834,7.644,7.644,0,0,0,1.062-2.229l0.042,0.709a5.139,5.139,0,0,0,1.021,3.187,4,4,0,0,0,3.312,1.229,3.949,3.949,0,0,0,2.479-.937,11.243,11.243,0,0,0,2.23-2.438,27.437,27.437,0,0,0,1.979-3.375q0.938-1.875,1.708-3.729t1.417-3.5q0.645-1.646,1.1-2.729a1.2,1.2,0,0,0-.875-0.729,1.415,1.415,0,0,0-.708.9q-0.168.5-.667,1.708t-1.188,2.75q-0.687,1.542-1.52,3.167t-1.646,3a17.431,17.431,0,0,1-1.542,2.25,1.941,1.941,0,0,1-1.229.875,0.491,0.491,0,0,1-.417-0.25,1.861,1.861,0,0,1-.25-0.605,4.276,4.276,0,0,1-.1-0.77q-0.021-.417-0.021-0.75a14.813,14.813,0,0,1,.438-2.792q0.395-1.667,1.021-4.208,0.165-.708.541-2.062t0.709-2.9q0.333-1.541.52-3.125a10.714,10.714,0,0,0,0-2.833,3.354,3.354,0,0,0-.875-1.937,2.271,2.271,0,0,0-2.1-.437q-1.209.209-1.771,0.354a2.012,2.012,0,0,0-.729.292,0.239,0.239,0,0,0-.021.354q0.146,0.209.355,0.5a3.968,3.968,0,0,1,.395.729,2.294,2.294,0,0,1,.146,1.063q-0.209,1.917-.521,3.521t-0.812,3.479l-0.292.583V95.208a44.492,44.492,0,0,1-2.75,7.729,15.939,15.939,0,0,1-2.708,4.209q-1.249,1.229-2.083.708t-0.834-2.771a21.288,21.288,0,0,1,.4-4.1q0.4-2.02.9-3.979t0.979-3.854a24.1,24.1,0,0,0,.646-3.771,7.406,7.406,0,0,0-.354-2.542A3.242,3.242,0,0,0,118.229,85,4.38,4.38,0,0,0,117.354,84.6Zm36.1,16.521q0.438-2.416,1.021-5.1t1.25-5.542Q156.395,87.626,157,84.9t1.1-5.146q0.5-2.416.75-4.25a6.544,6.544,0,0,0,.042-1.646,3.439,3.439,0,0,0-.479-1.458,2.867,2.867,0,0,0-1.167-1.042,4.546,4.546,0,0,0-2.062-.4,5.57,5.57,0,0,0-1.73.208,2.1,2.1,0,0,0-.854.479,0.722,0.722,0,0,0-.229.542,0.663,0.663,0,0,0,.188.438,0.618,0.618,0,0,0,.541.208,3.914,3.914,0,0,1,.542-0.042,0.6,0.6,0,0,1,.437.188,1.482,1.482,0,0,1,.188.938,12.3,12.3,0,0,1-.125,1.458q-0.124.959-.313,2.146T153.4,80.042q-0.25,1.334-.5,2.5-0.166.709-.354,1.813t-0.4,2.313q-0.208,1.209-.438,2.375T151.271,91a11.115,11.115,0,0,0,.062-2.771,6.749,6.749,0,0,0-.52-2,3.4,3.4,0,0,0-.917-1.25,2.3,2.3,0,0,0-1.083-.521,6.912,6.912,0,0,0-3.771.563,11,11,0,0,0-3.334,2.354A18.539,18.539,0,0,0,138.958,91a26.01,26.01,0,0,0-2.062,4.4,28.387,28.387,0,0,0-1.25,4.666,20.512,20.512,0,0,0-.333,4.4,8.606,8.606,0,0,0,.354,2.167,5.932,5.932,0,0,0,.9,1.833,4.123,4.123,0,0,0,1.5,1.25,4.682,4.682,0,0,0,2.125.459,5.149,5.149,0,0,0,2.875-.875,10.915,10.915,0,0,0,2.354-2.084,14.145,14.145,0,0,0,1.687-2.458,12.874,12.874,0,0,0,.917-2.042,3.57,3.57,0,0,0-.1.667c-0.015.222-.035,0.444-0.063,0.667a12.758,12.758,0,0,0,.063,1.916,6.849,6.849,0,0,0,.458,1.875,4.609,4.609,0,0,0,.958,1.5,2.988,2.988,0,0,0,1.521.834,4.293,4.293,0,0,0,3.1-.438,10.533,10.533,0,0,0,2.875-2.333,24.261,24.261,0,0,0,2.542-3.459Q160.563,102,161.5,100.1t1.625-3.479q0.687-1.583,1.063-2.375l0.291-.75a1.491,1.491,0,0,0-.25-0.458,0.6,0.6,0,0,0-.5-0.208,2.42,2.42,0,0,0-.583.125q-1.291,2.75-2.417,4.875t-2.146,3.792q-1.022,1.667-1.979,2.958T154.646,107a1.81,1.81,0,0,1-1.125.833,0.621,0.621,0,0,1-.521-0.5,3.2,3.2,0,0,1-.125-1.083q0.021-.626.021-0.917A39.582,39.582,0,0,1,153.458,101.125ZM149.5,87.167a6.943,6.943,0,0,1,.438,1.875,17.587,17.587,0,0,1,.083,2.458q-0.042,1.334-.146,2.5T149.6,96.042a8.09,8.09,0,0,1-.25,1.083l-1.5,3.1q-0.875,1.812-1.875,3.479a17.03,17.03,0,0,1-2.1,2.854,3.115,3.115,0,0,1-2.229,1.188,1.366,1.366,0,0,1-1.292-.937,6.322,6.322,0,0,1-.437-2.459,19.314,19.314,0,0,1,.312-3.479,36.3,36.3,0,0,1,.917-3.979,32.373,32.373,0,0,1,1.417-3.937,24.416,24.416,0,0,1,1.791-3.417,9.776,9.776,0,0,1,2.042-2.375,3.107,3.107,0,0,1,2.208-.792A1.085,1.085,0,0,1,149.5,87.167ZM171.75,109.1a13.95,13.95,0,0,0,3.271-2.417,20.833,20.833,0,0,0,2.729-3.333q1.228-1.854,2.229-3.708t1.729-3.521q0.729-1.666,1.271-2.792a0.433,0.433,0,0,0-.041-0.479,1.147,1.147,0,0,0-.417-0.354A0.983,0.983,0,0,0,182,92.4a0.458,0.458,0,0,0-.4.313q-0.542,1.209-1.333,2.854T178.5,98.938q-0.979,1.729-2.125,3.4a19.851,19.851,0,0,1-2.417,2.917,11.116,11.116,0,0,1-2.625,1.958,4.362,4.362,0,0,1-2.729.5,2.256,2.256,0,0,1-1.437-.708,3.914,3.914,0,0,1-.792-1.4,6.108,6.108,0,0,1-.292-1.812,18.592,18.592,0,0,1,.063-1.98A16.218,16.218,0,0,1,166.4,100q0.167-.833.333-1.375a17.486,17.486,0,0,0,3.375-.687,13.7,13.7,0,0,0,3.146-1.4,9.507,9.507,0,0,0,2.479-2.167,6.448,6.448,0,0,0,1.334-3.042,12.664,12.664,0,0,0,.166-2.5,6.383,6.383,0,0,0-.458-2.25,3.521,3.521,0,0,0-3.542-2.25,6.8,6.8,0,0,0-4.125,1.458,15.5,15.5,0,0,0-3.521,3.75,24.448,24.448,0,0,0-2.625,5.083,25.257,25.257,0,0,0-1.437,5.458,2.368,2.368,0,0,0-.083.646v0.646l-0.042.292a12.013,12.013,0,0,0,.333,3.208,8.021,8.021,0,0,0,1.188,2.667,5.822,5.822,0,0,0,2.062,1.833,6.208,6.208,0,0,0,2.959.667A8.029,8.029,0,0,0,171.75,109.1Zm2.979-20.521a2.442,2.442,0,0,1,.5.917,5.055,5.055,0,0,1,.209,1.125,5.612,5.612,0,0,1,0,.958,4.542,4.542,0,0,1-1.063,2.354,7.118,7.118,0,0,1-2.021,1.6,9.65,9.65,0,0,1-2.479.917,13.476,13.476,0,0,1-2.4.333q0.5-1.041,1.229-2.521a26.335,26.335,0,0,1,1.6-2.812,16.058,16.058,0,0,1,1.791-2.292,2.573,2.573,0,0,1,1.792-.958A1.068,1.068,0,0,1,174.729,88.583Zm17.229,14.229a5.274,5.274,0,0,0-.229-1.937q1.041-.626,2.167-1.4a24.9,24.9,0,0,0,2.167-1.667,16.4,16.4,0,0,0,1.9-1.917,7.918,7.918,0,0,0,1.313-2.187,1.517,1.517,0,0,0,.1-0.812,1.444,1.444,0,0,0-.229-0.625,0.485,0.485,0,0,0-.4-0.229,0.573,0.573,0,0,0-.437.375,15.611,15.611,0,0,1-1.6,2.479,14.989,14.989,0,0,1-1.75,1.854,14.455,14.455,0,0,1-1.812,1.375q-0.916.584-1.833,1.083-0.792-1.75-1.771-3.812t-2.063-3.9l0.875-1.792a35.234,35.234,0,0,0,1.4-3.4A10.124,10.124,0,0,0,190.271,84q0.125-2.458-2.5-2.208a6.542,6.542,0,0,0-1.875.5,6.586,6.586,0,0,0-3.271,2.958,5.84,5.84,0,0,0-.687,2.542,10.882,10.882,0,0,0,.52,3.979,26.166,26.166,0,0,0,2.188,4.813q0.375,0.625.771,1.167t0.75,1.083a9.15,9.15,0,0,1,.625,1.125,4.21,4.21,0,0,1,.354,1.25,11.171,11.171,0,0,0-2.208.709q-1.167.5-2.375,1.125a10.343,10.343,0,0,0-2.771,1.979,6.171,6.171,0,0,0-1.438,2.166,3,3,0,0,0-.083,1.959,2.117,2.117,0,0,0,1.292,1.312,7.141,7.141,0,0,0,3.187.521,10.992,10.992,0,0,0,3.729-.792,10.233,10.233,0,0,0,3.313-2.145,6.76,6.76,0,0,0,1.937-3.542A9.494,9.494,0,0,0,191.958,102.812Zm-11.875,5.23a2.076,2.076,0,0,1,.542-1.25,6.957,6.957,0,0,1,1.4-1.23,15.879,15.879,0,0,1,1.812-1.083,15.368,15.368,0,0,1,1.813-.792,5.758,5.758,0,0,1,1.458-.354l-0.25.042a7.229,7.229,0,0,1-.937,2.687,9.036,9.036,0,0,1-1.667,2.084,5.286,5.286,0,0,1-1.9,1.166,1.674,1.674,0,0,1-1.583-.145A1.343,1.343,0,0,1,180.083,108.042ZM186.6,90.333a3.732,3.732,0,0,1-.25-1.75,6.6,6.6,0,0,1,.375-1.687,10.572,10.572,0,0,1,.75-1.729,2.971,2.971,0,0,1,.75-0.979q0.333-.229.417,0.563a3.488,3.488,0,0,1-.146.833c-0.1.361-.229,0.771-0.4,1.229s-0.354.945-.562,1.458-0.41.994-.6,1.438Z"/>
</svg>
