<svg id="Design_3" data-name="Design 3" xmlns="http://www.w3.org/2000/svg" xmlns:xlink="http://www.w3.org/1999/xlink" width="200" height="200" viewBox="0 0 200 200">
  <defs>
    <style>
      .cls-1, .cls-2 {
        fill: #fff;
      }

      .cls-1 {
        stroke: #173753;
        stroke-linejoin: round;
        stroke-width: 2px;
        filter: url(#filter);
      }

      .cls-2, .cls-3 {
        fill-rule: evenodd;
      }

      .cls-3 {
        fill: #24a2d0;
      }
    </style>
    <filter id="filter" x="20.656" y="20.656" width="158.688" height="158.688" filterUnits="userSpaceOnUse">
      <feFlood result="flood" flood-color="#212121"/>
      <feComposite result="composite" operator="in" in2="SourceGraphic"/>
      <feBlend result="blend" in2="SourceGraphic"/>
    </filter>
  </defs>
  <g style="fill: #fff; filter: url(#filter)">
    <circle id="circle" class="cls-1" cx="100" cy="100" r="79.344" style="stroke: inherit; filter: none; fill: inherit"/>
  </g>
  <use xlink:href="#circle" style="stroke: #173753; filter: none; fill: none"/>
  <path id="A" class="cls-2" d="M148.936,102.149A107.854,107.854,0,0,0,157.6,77.717,22.23,22.23,0,0,0,158.424,73a4.3,4.3,0,0,0-.31-1.305,1.364,1.364,0,0,0-2.291.473,93.384,93.384,0,0,1-8.936,25.522q-5.939,11.026-10.244,13-4.464,2.049-8.231-6.161t-7.1-23.467l4.377-1.816,4.862-2.231a21.522,21.522,0,0,0,6.84-5.069q3.8-3.482,4.095-7.476a1.849,1.849,0,0,0-1.11-2q-1.239-.589-1.467,1.638t-3.2,5.426a20,20,0,0,1-6.239,4.7,47.013,47.013,0,0,1-4.616,1.926l-4.059,1.67-0.033-1.335q-6.111-35.6-2.44-67.967c0.007-.26,0-0.548-0.011-0.864a3.814,3.814,0,0,1,.026-0.784,0.863,0.863,0,0,0-.023-0.472,1.552,1.552,0,0,0-2.326-.862,17.8,17.8,0,0,0-7.265,6.036,4.128,4.128,0,0,0-.577.844l-0.16.073q0.148,0.321-7.328,30.284T89.1,86.574Q55.4,94.712,47.748,98.222a55.407,55.407,0,0,0-12.658,7.739,17.163,17.163,0,0,0-5.625,9.819q-1.428,6.35,3.108,16.231a12.9,12.9,0,0,0,4.46,5.093,2.3,2.3,0,0,0,2.07.3,1.414,1.414,0,0,0,1.062-1.26,2.209,2.209,0,0,0-1.117-1.8,6.218,6.218,0,0,1-1.881-2.417,10.554,10.554,0,0,1-.862-3.56q-1.29-15.424,18.954-24.717,7.491-3.438,32.241-11.324-10.428,34.891-19.184,49.234t-21.83,20.344a20.519,20.519,0,0,1-11.525,2.009,9.926,9.926,0,0,1-7.955-6.191q-1.389-3.027-2.48-3.3t-1.265,1.449a6.276,6.276,0,0,0,.556,3.315q3.877,8.447,11.99,9.936a27.531,27.531,0,0,0,16.72-2.464q13.547-6.217,21.826-21.4,9.763-17.407,19.337-55,14.2-4.389,19.993-6.474,2.545,13.115,5.654,19.887t7.353,10.134a8.254,8.254,0,0,0,9.185,1.092,26.952,26.952,0,0,0,13.061-12.749h0ZM113.09,80.39L95.109,85.362q5.308-20.383,12.726-56.788c-0.009.263-.007,0.615,0,1.06s0.011,0.8,0,1.06q1.737,30.276,5.247,49.7h0Z"/>
  <path id="ttitudes" class="cls-2" d="M89.584,122.033l1.6-2.8a0.959,0.959,0,0,1,.367-0.366,1.637,1.637,0,0,0,.5-0.55,1.378,1.378,0,0,0,.233-0.7,0.769,0.769,0,0,0-.1-0.45A0.966,0.966,0,0,0,91.3,116.8a0.985,0.985,0,0,0-.783.2l-0.133.133a1.309,1.309,0,0,0-.167.234c-0.067.111-.128,0.216-0.183,0.316s-0.139.245-.25,0.434-0.211.372-.3,0.55l-1.667,3.1a0.134,0.134,0,0,0-.133.066q-1.534.067-1.767,0.6a0.476,0.476,0,0,0,.033.517,0.609,0.609,0,0,0,.517.217,3.436,3.436,0,0,0,.683-0.067q-0.734,1.367-.733,1.4-0.933,1.4-2.567,3.433a0.5,0.5,0,0,0-.133.284,0.41,0.41,0,0,0,.033.183q0.166,0.333.467,0a10.745,10.745,0,0,0,1.3-1.667,9.794,9.794,0,0,0-1.067,3.534,2.07,2.07,0,0,0,.067.566,1.714,1.714,0,0,0,1.767,1.267,4.293,4.293,0,0,0,1.4-.3,10.727,10.727,0,0,0,3.567-2.833q2.233-2.4,1.733-2.634a0.245,0.245,0,0,0-.333.067,17.958,17.958,0,0,1-2.517,2.733A14.056,14.056,0,0,1,87.717,131a0.99,0.99,0,0,1-1.333-.067,1.108,1.108,0,0,1-.267-0.766,7.143,7.143,0,0,1,.033-0.767,20.5,20.5,0,0,1,2-4.833,5.182,5.182,0,0,1,.533-0.967q0.233-.4.4-0.7a32.991,32.991,0,0,0,3.817-.55,1,1,0,0,0,.783-0.417q0-.166-0.55-0.166T90.017,122Zm8.867,0,1.6-2.8a0.963,0.963,0,0,1,.367-0.366,1.646,1.646,0,0,0,.5-0.55,1.379,1.379,0,0,0,.233-0.7,0.767,0.767,0,0,0-.1-0.45,0.966,0.966,0,0,0-.883-0.367,0.985,0.985,0,0,0-.784.2l-0.133.133a1.309,1.309,0,0,0-.167.234c-0.067.111-.128,0.216-0.183,0.316s-0.139.245-.25,0.434-0.212.372-.3,0.55l-1.667,3.1a0.134,0.134,0,0,0-.133.066q-1.534.067-1.767,0.6a0.476,0.476,0,0,0,.033.517,0.609,0.609,0,0,0,.517.217,3.435,3.435,0,0,0,.683-0.067q-0.734,1.367-.733,1.4-0.934,1.4-2.567,3.433a0.5,0.5,0,0,0-.133.284,0.411,0.411,0,0,0,.033.183q0.166,0.333.467,0a10.752,10.752,0,0,0,1.3-1.667,9.8,9.8,0,0,0-1.067,3.534,2.065,2.065,0,0,0,.067.566A1.714,1.714,0,0,0,95.15,132.1a4.293,4.293,0,0,0,1.4-.3,10.728,10.728,0,0,0,3.567-2.833q2.232-2.4,1.733-2.634a0.245,0.245,0,0,0-.333.067A17.944,17.944,0,0,1,99,129.133,14.064,14.064,0,0,1,96.584,131a0.99,0.99,0,0,1-1.333-.067,1.108,1.108,0,0,1-.267-0.766,7.173,7.173,0,0,1,.033-0.767,20.513,20.513,0,0,1,2-4.833,5.179,5.179,0,0,1,.533-0.967q0.233-.4.4-0.7a33.017,33.017,0,0,0,3.817-.55,1,1,0,0,0,.783-0.417q0-.166-0.55-0.166T98.884,122Zm6.934,0.067q-0.5.1-1.167,1.967a0.536,0.536,0,0,0-.067.433q-0.933,1.4-2.566,3.433a0.491,0.491,0,0,0-.134.284,0.4,0.4,0,0,0,.034.183c0.11,0.222.266,0.222,0.466,0a10.738,10.738,0,0,0,1.3-1.667,9.8,9.8,0,0,0-1.066,3.534,2.06,2.06,0,0,0,.066.566,1.715,1.715,0,0,0,1.767,1.267,4.3,4.3,0,0,0,1.4-.3,10.735,10.735,0,0,0,3.567-2.833,13.077,13.077,0,0,0,1.8-2.3,0.342,0.342,0,0,0,.066-0.184,0.238,0.238,0,0,0-.166-0.166,0.224,0.224,0,0,0-.3.083,17.987,17.987,0,0,1-2.517,2.733A14.033,14.033,0,0,1,105.45,131a0.99,0.99,0,0,1-1.333-.067,1.109,1.109,0,0,1-.267-0.766,6.968,6.968,0,0,1,.034-0.767,20.461,20.461,0,0,1,2-4.833q0.165-.3.333-0.634c0.022-.066.055-0.155,0.1-0.266a4.925,4.925,0,0,1,.217-0.45,0.832,0.832,0,0,0,.083-0.584,0.9,0.9,0,0,0-1-.533h-0.233Zm2.733-4.567a1.9,1.9,0,0,0-.667.467l-0.566.433a7.071,7.071,0,0,0-1.434,1.234q0,0.7,1.434.7a1.256,1.256,0,0,0,.666-0.667,2.188,2.188,0,0,0,.434-0.967l0.266-1.066A0.118,0.118,0,0,0,108.117,117.533Zm8.067,4.5,1.6-2.8a0.953,0.953,0,0,1,.366-0.366,1.635,1.635,0,0,0,.5-0.55,1.381,1.381,0,0,0,.234-0.7,0.775,0.775,0,0,0-.1-0.45,0.967,0.967,0,0,0-.884-0.367,0.983,0.983,0,0,0-.783.2l-0.133.133a1.312,1.312,0,0,0-.167.234c-0.067.111-.128,0.216-0.183,0.316s-0.14.245-.25,0.434-0.212.372-.3,0.55l-1.667,3.1a0.133,0.133,0,0,0-.133.066q-1.535.067-1.767,0.6a0.477,0.477,0,0,0,.033.517,0.61,0.61,0,0,0,.517.217,3.432,3.432,0,0,0,.683-0.067q-0.734,1.367-.733,1.4-0.934,1.4-2.567,3.433a0.5,0.5,0,0,0-.133.284,0.416,0.416,0,0,0,.033.183q0.167,0.333.467,0a10.808,10.808,0,0,0,1.3-1.667,9.784,9.784,0,0,0-1.067,3.534,2.057,2.057,0,0,0,.067.566,1.713,1.713,0,0,0,1.767,1.267,4.3,4.3,0,0,0,1.4-.3,10.724,10.724,0,0,0,3.566-2.833q2.234-2.4,1.734-2.634a0.246,0.246,0,0,0-.334.067,17.977,17.977,0,0,1-2.516,2.733A14.11,14.11,0,0,1,114.317,131a0.99,0.99,0,0,1-1.333-.067,1.1,1.1,0,0,1-.267-0.766,7.264,7.264,0,0,1,.033-0.767,20.555,20.555,0,0,1,2-4.833,5.167,5.167,0,0,1,.534-0.967q0.232-.4.4-0.7a32.988,32.988,0,0,0,3.816-.55,1,1,0,0,0,.784-0.417c0-.111-0.184-0.166-0.55-0.166s-1.406.078-3.117,0.233Zm19.633,4.634a0.344,0.344,0,0,0,.067-0.184,0.249,0.249,0,0,0-.184-0.166,0.241,0.241,0,0,0-.316.083,16.425,16.425,0,0,1-2.467,2.717,14.411,14.411,0,0,1-2.417,1.866,1.046,1.046,0,0,1-1.383-.05,1.109,1.109,0,0,1-.267-0.766,6.968,6.968,0,0,1,.034-0.767,9.208,9.208,0,0,1,.883-2.967q0.649-1.266,2.25-3.933,0.233-.4-0.483-0.65a3.879,3.879,0,0,0-1.25-.25q-0.168.267-1,1.717t-1.167,1.95a24.133,24.133,0,0,1-3.817,4.65,4.046,4.046,0,0,1-2.183,1.116,1.363,1.363,0,0,1-.683-0.2,0.935,0.935,0,0,1-.35-0.883,5.055,5.055,0,0,1,.366-1.683,12.089,12.089,0,0,1,3.267-4.667q0.6-.433.133-0.617a2.5,2.5,0,0,0-.916-0.183,3.726,3.726,0,0,0-.95.133,8.117,8.117,0,0,0-1.717,2.217,7.454,7.454,0,0,0-1.35,4.05,2.2,2.2,0,0,0,1.333,2.2,3.5,3.5,0,0,0,1.3.3,3.407,3.407,0,0,0,2.384-1.2,13.885,13.885,0,0,0,2-2.55,12.288,12.288,0,0,1,.916-1.417,9.329,9.329,0,0,0-.666,3.434A3.456,3.456,0,0,0,127.35,131a1.4,1.4,0,0,0,.65.817,1.693,1.693,0,0,0,.784.283,4.838,4.838,0,0,0,2.9-.967,17.88,17.88,0,0,0,2.333-2.166,12.98,12.98,0,0,0,1.8-2.3h0Zm-0.167,1.3a2.794,2.794,0,0,0-.3,1.266,2.048,2.048,0,0,0,.434,1.25,2.994,2.994,0,0,0,1.05.9,2.533,2.533,0,0,0,1.15.317q2.232,0,7.566-6.2-0.6,1.533-1.333,3.867a12.286,12.286,0,0,0-.533,3.7q0,2.065,1.6,2.333a8.481,8.481,0,0,0,.95.033,2.157,2.157,0,0,0,1.25-.366,7.4,7.4,0,0,0,.5-0.567c0.088-.2.1-0.322,0.033-0.367a0.323,0.323,0,0,0-.317.05,1.9,1.9,0,0,0-.366.25,3.67,3.67,0,0,1-.434.317,0.884,0.884,0,0,1-.683.1,0.84,0.84,0,0,1-.6-0.517,3.48,3.48,0,0,1-.4-1.8,15.115,15.115,0,0,1,.6-3.433,33.025,33.025,0,0,1,1.667-4.767q0.3-.265,3.1-2.516a50.326,50.326,0,0,0,4.3-3.784,13.877,13.877,0,0,0,2.216-2.816,4.64,4.64,0,0,0,.717-2.117,1.446,1.446,0,0,0-.233-0.7,2.066,2.066,0,0,0-1.9-.8q-4.168,0-8.734,10.6a2.784,2.784,0,0,0-1.7-.6,7.564,7.564,0,0,0-1.833.233A10.665,10.665,0,0,0,140.884,123a19.259,19.259,0,0,0-3.084,2.25,8.711,8.711,0,0,0-2.15,2.717h0Zm10.567-4.1a68.386,68.386,0,0,1-6.6,6.133,4.268,4.268,0,0,1-2.133,1.133q-0.7,0-.7-1.233a4.575,4.575,0,0,1,.883-2.017,13,13,0,0,1,2.05-2.483,14.71,14.71,0,0,1,2.983-2.05,6.04,6.04,0,0,1,2.584-.817,3.441,3.441,0,0,1,1.4.2Zm6.8-5.2a29.059,29.059,0,0,1-4.533,3.733q2.965-6.567,6.633-9.367a2.416,2.416,0,0,1,1.283-.6,0.46,0.46,0,0,1,.484.55,2.981,2.981,0,0,1-.434,1.35A18.763,18.763,0,0,1,153.017,118.667Zm0.5,4.966a10.464,10.464,0,0,0-3.567,3.9,5.33,5.33,0,0,0-.433,1.9,2.457,2.457,0,0,0,.367,1.367,3.761,3.761,0,0,0,3.366,1.433,9.016,9.016,0,0,0,5.767-2.533,11.882,11.882,0,0,0,2.533-2.967,0.405,0.405,0,0,0,.1-0.233,0.2,0.2,0,0,0-.133-0.167c-0.112-.111-0.233-0.077-0.367.1a12.231,12.231,0,0,1-5.8,4.634,6.185,6.185,0,0,1-2.3.533,1.735,1.735,0,0,1-1.333-.467,1.43,1.43,0,0,1-.433-0.983,3.514,3.514,0,0,1,.166-1.05,9.226,9.226,0,0,1,2.267-3.55,11.494,11.494,0,0,1,3.3-2.55,2.837,2.837,0,0,1,1.167-.367,0.479,0.479,0,0,1,.533.55,1.988,1.988,0,0,1-.433,1.15,10.774,10.774,0,0,1-3.267,2.467,5.283,5.283,0,0,1-1.967.733,0.72,0.72,0,0,0-.183.034,0.118,0.118,0,0,0-.083.166q0.032,0.3.5,0.267a9.1,9.1,0,0,0,3.166-1.017,6.741,6.741,0,0,0,2.7-2.15,2.129,2.129,0,0,0,.5-1.466,1.562,1.562,0,0,0-1.8-1.734Q156.251,121.633,153.517,123.633Zm9.616,7.4a0.634,0.634,0,0,0,.35-0.233,0.153,0.153,0,0,0-.2-0.2,5.107,5.107,0,0,0-1.6.967,1.872,1.872,0,0,0-.533.916,0.7,0.7,0,0,0,.1.417,1,1,0,0,0,.983.533,6.1,6.1,0,0,0,1.417-.166,8.67,8.67,0,0,0,4.667-2.434,2.714,2.714,0,0,0,.933-2.2,1.353,1.353,0,0,0-.5-0.8,5.165,5.165,0,0,0-.8-0.633q-0.333-.2-1.133-0.633t-1.134-.634a1.3,1.3,0,0,1-.8-1.05,1.884,1.884,0,0,1,.434-1.15,8.074,8.074,0,0,1,3.05-2.5,7.718,7.718,0,0,1,3.25-.966h0.2a0.582,0.582,0,0,1,.533.733,1.7,1.7,0,0,1-.45.95,0.633,0.633,0,0,0-.283.55,0.212,0.212,0,0,0,.333.067,2.618,2.618,0,0,0,1.017-1.067,2.545,2.545,0,0,0,.25-1,1.233,1.233,0,0,0-.517-0.883,2.735,2.735,0,0,0-1.783-.45,8.768,8.768,0,0,0-4.434,1.466q-2.433,1.467-2.666,3.3a12.629,12.629,0,0,1-1.8,3.134,0.277,0.277,0,0,0,.033.416,0.3,0.3,0,0,0,.433-0.116q1.034-1.5,1.5-2.3a2.825,2.825,0,0,0,1.134,1.2q0.1,0.066.866,0.466,1.633,0.867,1.634,1.6a3.667,3.667,0,0,1-1.35,2.617,7.051,7.051,0,0,1-2.784,1.717,2.279,2.279,0,0,1-.65.1,0.726,0.726,0,0,1-.566-0.3,0.6,0.6,0,0,1,.183-0.8A1.83,1.83,0,0,1,163.133,131.033Z"/>
  <path id="Hair_Design" data-name="Hair Design" class="cls-3" d="M86.575,143.933a4.34,4.34,0,0,0-.067.617,4.094,4.094,0,0,0,.025.433,0.921,0.921,0,0,0,.267.5,0.885,0.885,0,0,0,.692.267,2.609,2.609,0,0,0,1.633-.583,9.55,9.55,0,0,0,1.717-1.767,2.817,2.817,0,0,0,.258-0.425,0.1,0.1,0,0,0-.058-0.15,0.114,0.114,0,0,0-.15.025,9.594,9.594,0,0,1-1.775,1.85,2.811,2.811,0,0,1-1.417.733q-0.475,0-.475-0.816a8.088,8.088,0,0,1,.783-2.9,4.314,4.314,0,0,0,1.533-.2,1.419,1.419,0,0,0,.625-0.409,0.27,0.27,0,0,0,.058-0.316c-0.056-.072-0.111-0.059-0.167.041a2.392,2.392,0,0,1-1.917.6q0.633-1.416,1.45-2.866a8.242,8.242,0,0,1,1.083-1.525,1.481,1.481,0,0,1,.967-0.592,0.3,0.3,0,0,1,.117.05c0.056,0.033.083,0.028,0.083-.017a0.565,0.565,0,0,0-.375-0.491,1.467,1.467,0,0,0-.642-0.192,1.834,1.834,0,0,0-1.275.758,2.553,2.553,0,0,0-.725,1.225,0.459,0.459,0,0,1,.05.234,2.8,2.8,0,0,1-.242.725q-0.242.575-1.208,2.625a26.56,26.56,0,0,1-2.75-.5q-0.834-.2-1.267-0.284,0.466-1.066,1.108-2.741t0.742-1.925c0.011-.134-0.156-0.2-0.5-0.2s-0.528.066-.55,0.2a4.493,4.493,0,0,1-1.158,1.566,2.662,2.662,0,0,1-1.475.734c-0.133.022-.2,0.078-0.192,0.166s0.064,0.128.175,0.117a3.757,3.757,0,0,0,2.167-.917q-0.567,1.8-.967,2.867a9.157,9.157,0,0,0-1.017-.15l-1.017-.1a4.979,4.979,0,0,0-1.333.167,1.728,1.728,0,0,0-.875.641,2.483,2.483,0,0,0-.375,1.509,1.289,1.289,0,0,0,.183.616,0.222,0.222,0,0,0,.258.109c0.106-.028.125-0.1,0.058-0.209a0.642,0.642,0,0,1-.1-0.333,0.843,0.843,0,0,1,.083-0.35q0.483-1.367,2.6-1.367c0.133,0,.278.006,0.433,0.017l0.883,0.05q-2.117,5.433-4.55,6.2a1.52,1.52,0,0,1-.475.067,3.694,3.694,0,0,1-.642-0.067,0.87,0.87,0,0,1-.633-0.617,0.51,0.51,0,0,0-.167-0.316q-0.083-.034-0.108.075a0.833,0.833,0,0,0-.025.183,0.6,0.6,0,0,0,.017.142,1.4,1.4,0,0,0,1.533,1.05,2.385,2.385,0,0,0,.767-0.15q2.383-.734,4.917-6.484l4.133,0.55a8.154,8.154,0,0,0-.733,2.25h0Zm6.892,1a9.861,9.861,0,0,0,1.275-1.216,6.46,6.46,0,0,1,.617-0.667,4.458,4.458,0,0,0-.317,1.583,1.852,1.852,0,0,0,.05.45,0.837,0.837,0,0,0,.85.634,2.493,2.493,0,0,0,1.45-.584,9.8,9.8,0,0,0,1.208-1.141,2.764,2.764,0,0,0,.792-1.092,0.124,0.124,0,0,0-.083-0.075,0.112,0.112,0,0,0-.15.042,8.272,8.272,0,0,1-1.242,1.366,7.068,7.068,0,0,1-1.208.934,0.52,0.52,0,0,1-.683-0.034,0.553,0.553,0,0,1-.133-0.383,3.571,3.571,0,0,1,.017-0.383,5.308,5.308,0,0,1,1-2.417q0.1-.166-0.183-0.283a1.311,1.311,0,0,0-.483-0.117,12.951,12.951,0,0,0-1.65,1.65,21.067,21.067,0,0,1-1.617,1.467,2.13,2.13,0,0,1-1.067.566q-0.35,0-.35-0.616A2.292,2.292,0,0,1,92,143.608a6.489,6.489,0,0,1,1.025-1.241,7.345,7.345,0,0,1,1.492-1.025,3.16,3.16,0,0,1,1.417-.409,0.908,0.908,0,0,1,.825.317,0.089,0.089,0,0,0,.083.017,0.177,0.177,0,0,0,.017-0.1,0.613,0.613,0,0,0-.317-0.475,1.276,1.276,0,0,0-.758-0.225,3.774,3.774,0,0,0-.908.116,5.352,5.352,0,0,0-1.267.584,9.622,9.622,0,0,0-1.542,1.125,4.354,4.354,0,0,0-1.075,1.358,1.4,1.4,0,0,0-.15.633,1.026,1.026,0,0,0,.217.625,1.492,1.492,0,0,0,.525.45,1.264,1.264,0,0,0,.575.159A2.187,2.187,0,0,0,93.467,144.933Zm7.625-4.216a1.572,1.572,0,0,0-.584.983,0.273,0.273,0,0,0-.033.217q-0.466.7-1.283,1.716a0.247,0.247,0,0,0-.067.142,0.207,0.207,0,0,0,.017.092q0.083,0.167.233,0a5.359,5.359,0,0,0,.65-0.834,4.9,4.9,0,0,0-.533,1.767,1.03,1.03,0,0,0,.033.283,0.858,0.858,0,0,0,.883.634,2.141,2.141,0,0,0,.7-0.15,5.355,5.355,0,0,0,1.784-1.417,6.538,6.538,0,0,0,.9-1.15,0.17,0.17,0,0,0,.033-0.092,0.121,0.121,0,0,0-.083-0.083,0.112,0.112,0,0,0-.15.042,9,9,0,0,1-1.259,1.366,7.033,7.033,0,0,1-1.208.934,0.5,0.5,0,0,1-.667-0.034,0.553,0.553,0,0,1-.133-0.383,3.61,3.61,0,0,1,.017-0.383,10.207,10.207,0,0,1,1-2.417c0.055-.1.111-0.2,0.166-0.317,0.011-.033.028-0.077,0.05-0.133s0.059-.13.109-0.225a0.41,0.41,0,0,0,.041-0.292,0.451,0.451,0,0,0-.5-0.266h-0.116Zm1.366-2.284a0.956,0.956,0,0,0-.333.234l-0.283.216a3.554,3.554,0,0,0-.717.617q0,0.35.717,0.35a0.628,0.628,0,0,0,.333-0.333,1.1,1.1,0,0,0,.217-0.484l0.133-.533A0.059,0.059,0,0,0,102.458,138.433Zm5.084,6.85a8.1,8.1,0,0,0,1.266-1.133,6.443,6.443,0,0,0,.9-1.15,0.164,0.164,0,0,0,.034-0.092,0.126,0.126,0,0,0-.092-0.083,0.12,0.12,0,0,0-.158.042,8.213,8.213,0,0,1-1.234,1.358,7.719,7.719,0,0,1-1.091.875,1.2,1.2,0,0,1-.442.183q-0.349,0-.35-0.483a1.628,1.628,0,0,1,.117-0.55,8.368,8.368,0,0,1,1.5-2.483,3.13,3.13,0,0,0,.583-0.85,0.189,0.189,0,0,0-.067-0.259,0.88,0.88,0,0,0-.416-0.075l-0.584.017q-0.532,0-1.283-.05l0.65-1.033c0.222-.4.267-0.6,0.133-0.6a0.5,0.5,0,0,0-.183.033c-0.056.022-.189,0.083-0.4,0.183a2.84,2.84,0,0,0-.742.584,2.1,2.1,0,0,0-.508.691,0.365,0.365,0,0,0,.017.367,0.5,0.5,0,0,0,.3.142,13.718,13.718,0,0,1-1.55,2.35,0.4,0.4,0,0,0-.1.2,0.139,0.139,0,0,0,.083.116,0.4,0.4,0,0,0,.317-0.25q0.233-.3,1.733-2.416a4.4,4.4,0,0,1,.783.091,0.665,0.665,0,0,1,.55.292l0.05,0.15a0.849,0.849,0,0,1-.216.4l-0.117.167a1.928,1.928,0,0,1-.167.183,4.122,4.122,0,0,0-1.466,2.525,0.838,0.838,0,0,0,.85,1.025,2.077,2.077,0,0,0,1.3-.467h0Zm7.4-4.933a1.153,1.153,0,0,0,.625.958,2.659,2.659,0,0,0,1.241.459c0.178,0,.256-0.045.234-0.134a0.188,0.188,0,0,0-.109-0.091c-0.061-.028-0.189-0.075-0.383-0.142s-0.356-.128-0.483-0.183a1.006,1.006,0,0,1-.367-0.3,0.772,0.772,0,0,1-.175-0.5,2.826,2.826,0,0,1,1.333-2.15,9.679,9.679,0,0,1,3.217-1.592,12.62,12.62,0,0,1,3.583-.558h0.2a4.525,4.525,0,0,1,3.142,1.05,3.066,3.066,0,0,1,.992,2.233,5.481,5.481,0,0,1-1.434,3.45,8.207,8.207,0,0,1-2.333,1.883,6.091,6.091,0,0,1-3.033.817,3.751,3.751,0,0,1-2.25-.75q0.767-1.667,2.033-3.833a10.851,10.851,0,0,1,1.442-2.025,1.951,1.951,0,0,1,1.258-.775,0.257,0.257,0,0,1,.1.033,0.132,0.132,0,0,0,.083.025,0.169,0.169,0,0,0,.017-0.108,0.615,0.615,0,0,0-.4-0.442,1.494,1.494,0,0,0-.583-0.158,2.634,2.634,0,0,0-1.575,1.05,4,4,0,0,0-1.059,1.533,0.63,0.63,0,0,1,.034.233,1.151,1.151,0,0,1-.15.45q-1.3,2.7-1.7,3.684a3.009,3.009,0,0,1-.634-0.525,1.364,1.364,0,0,1-.516-0.742,1.311,1.311,0,0,1,.133-0.542c0.089-.194.1-0.313,0.042-0.358a0.419,0.419,0,0,0-.334,0,1.135,1.135,0,0,0-.375.167,0.326,0.326,0,0,0-.116.333,1.237,1.237,0,0,1,.133.467,12.16,12.16,0,0,0-.15,1.733,2.146,2.146,0,0,0,.35,1.233q0.6,0.883,1.367-.333,0.15-.251.291-0.517c0.095-.177.148-0.272,0.159-0.283a4.682,4.682,0,0,0,2.916.85,7.407,7.407,0,0,0,3.384-.8,7,7,0,0,0,2.608-2.258,5.424,5.424,0,0,0,1.025-3.184,3.435,3.435,0,0,0-1.3-2.791,4.693,4.693,0,0,0-2.083-.892,11.61,11.61,0,0,0-2.092-.242q-0.825,0-1.442.05-4.05.384-5.866,2a2.75,2.75,0,0,0-1.017,2.084l0.033,0.266a0.866,0.866,0,0,0-.016.167h0Zm2.791,4.008c0.25,0.262.414,0.425,0.492,0.492a0.178,0.178,0,0,1-.033.067,1.915,1.915,0,0,1-.667,1.166q-0.317,0-.317-2.25Q117.358,143.967,117.733,144.358Zm13.375-2.875a5.239,5.239,0,0,0-1.783,1.95,2.68,2.68,0,0,0-.217.95,1.226,1.226,0,0,0,.184.684,1.882,1.882,0,0,0,1.683.716,4.51,4.51,0,0,0,2.883-1.266,5.954,5.954,0,0,0,1.267-1.484,0.206,0.206,0,0,0,.05-0.116,0.1,0.1,0,0,0-.067-0.084c-0.055-.055-0.116-0.038-0.183.05a6.11,6.11,0,0,1-2.9,2.317,3.087,3.087,0,0,1-1.15.267,0.868,0.868,0,0,1-.667-0.234,0.715,0.715,0,0,1-.216-0.491,1.741,1.741,0,0,1,.083-0.525,4.622,4.622,0,0,1,1.133-1.775,5.743,5.743,0,0,1,1.65-1.275,1.427,1.427,0,0,1,.584-0.184,0.239,0.239,0,0,1,.266.275,0.992,0.992,0,0,1-.216.575,5.37,5.37,0,0,1-1.634,1.234,2.643,2.643,0,0,1-.983.366,0.371,0.371,0,0,0-.092.017,0.059,0.059,0,0,0-.041.083c0.011,0.1.094,0.145,0.25,0.134a4.558,4.558,0,0,0,1.583-.509,3.362,3.362,0,0,0,1.35-1.075,1.063,1.063,0,0,0,.25-0.733,0.781,0.781,0,0,0-.9-0.867A4.181,4.181,0,0,0,131.108,141.483Zm4.809,3.7a0.322,0.322,0,0,0,.175-0.116,0.077,0.077,0,0,0-.017-0.084,0.075,0.075,0,0,0-.083-0.016,2.527,2.527,0,0,0-.8.483,0.936,0.936,0,0,0-.267.458,0.353,0.353,0,0,0,.05.209,0.5,0.5,0,0,0,.492.266,3.072,3.072,0,0,0,.708-0.083,4.33,4.33,0,0,0,2.333-1.217,1.354,1.354,0,0,0,.467-1.1,0.676,0.676,0,0,0-.25-0.4,2.567,2.567,0,0,0-.4-0.316c-0.111-.067-0.3-0.172-0.567-0.317s-0.455-.25-0.566-0.317a0.646,0.646,0,0,1-.4-0.525,0.944,0.944,0,0,1,.216-0.575,4.046,4.046,0,0,1,1.525-1.25,3.861,3.861,0,0,1,1.625-.483h0.1a0.292,0.292,0,0,1,.267.367,0.845,0.845,0,0,1-.225.475,0.316,0.316,0,0,0-.142.275,0.107,0.107,0,0,0,.167.033,1.3,1.3,0,0,0,.508-0.533,1.257,1.257,0,0,0,.125-0.5,0.616,0.616,0,0,0-.258-0.442,1.366,1.366,0,0,0-.892-0.225,4.388,4.388,0,0,0-2.216.733,2.407,2.407,0,0,0-1.334,1.65,6.265,6.265,0,0,1-.9,1.567,0.139,0.139,0,0,0,.017.208,0.151,0.151,0,0,0,.217-0.058q0.516-.75.75-1.15a1.4,1.4,0,0,0,.566.6c0.034,0.022.178,0.1,0.434,0.233a1.229,1.229,0,0,1,.816.8,1.834,1.834,0,0,1-.675,1.309,3.539,3.539,0,0,1-1.391.858,1.142,1.142,0,0,1-.325.05,0.366,0.366,0,0,1-.284-0.15,0.3,0.3,0,0,1,.092-0.4A0.916,0.916,0,0,1,135.917,145.183Zm6.575-4.466a1.572,1.572,0,0,0-.584.983,0.273,0.273,0,0,0-.033.217q-0.466.7-1.283,1.716a0.246,0.246,0,0,0-.067.142,0.21,0.21,0,0,0,.017.092c0.055,0.111.133,0.111,0.233,0a5.363,5.363,0,0,0,.65-0.834,4.889,4.889,0,0,0-.533,1.767,1.047,1.047,0,0,0,.033.283,0.858,0.858,0,0,0,.883.634,2.141,2.141,0,0,0,.7-0.15,5.355,5.355,0,0,0,1.784-1.417,6.538,6.538,0,0,0,.9-1.15,0.17,0.17,0,0,0,.033-0.092,0.121,0.121,0,0,0-.083-0.083,0.112,0.112,0,0,0-.15.042,9,9,0,0,1-1.259,1.366,7.033,7.033,0,0,1-1.208.934,0.5,0.5,0,0,1-.667-0.034,0.553,0.553,0,0,1-.133-0.383,3.61,3.61,0,0,1,.017-0.383,10.207,10.207,0,0,1,1-2.417c0.055-.1.111-0.2,0.166-0.317,0.011-.033.028-0.077,0.05-0.133s0.059-.13.109-0.225a0.41,0.41,0,0,0,.041-0.292,0.451,0.451,0,0,0-.5-0.266h-0.116Zm1.366-2.284a0.956,0.956,0,0,0-.333.234l-0.283.216a3.554,3.554,0,0,0-.717.617q0,0.35.717,0.35a0.628,0.628,0,0,0,.333-0.333,1.1,1.1,0,0,0,.217-0.484l0.133-.533A0.059,0.059,0,0,0,143.858,138.433Zm3.617,11.4q0.483-.75,1.9-3.666a11.206,11.206,0,0,0,1.633-1.3q2-1.783,2-2.2,0-.3-0.366.133a16.065,16.065,0,0,1-1.625,1.625,8.465,8.465,0,0,1-1.309,1.008q0.283-.6.859-1.791t0.791-1.675c0.034-.067-0.039-0.145-0.216-0.234q-0.684-.333-0.9-0.016a17.617,17.617,0,0,1-2.75,2.716,2.878,2.878,0,0,1-1.434.767q-0.333,0-.333-0.583a2.363,2.363,0,0,1,.442-1.042,5.7,5.7,0,0,1,1.075-1.267,6.97,6.97,0,0,1,1.425-.966,3.158,3.158,0,0,1,1.416-.409,0.865,0.865,0,0,1,.809.317c0.089,0.033.133,0.006,0.133-.083a0.625,0.625,0,0,0-.333-0.467,1.31,1.31,0,0,0-.767-0.233,3.743,3.743,0,0,0-.9.116,5.367,5.367,0,0,0-1.267.584,9.122,9.122,0,0,0-1.533,1.133,2.955,2.955,0,0,0-1.233,1.983,1.028,1.028,0,0,0,.216.625,1.5,1.5,0,0,0,.525.45,1.268,1.268,0,0,0,.575.159q0.917,0,2.417-1.667,0.4-.433,1.333-1.567a32.039,32.039,0,0,1-1.666,3.884,19.914,19.914,0,0,0-3.692,2.883,2.91,2.91,0,0,0-.875,1.692,0.923,0.923,0,0,0,.85.891,1.384,1.384,0,0,0,.333.05q1.216,0,2.467-1.85h0Zm0.342-2.5q-0.209.434-.284,0.575l-0.283.534c-0.139.261-.247,0.452-0.325,0.575l-0.325.508a6.39,6.39,0,0,1-.375.533q-0.166.209-.392,0.45a4.864,4.864,0,0,1-.541.492,0.936,0.936,0,0,1-.484.25,0.56,0.56,0,0,1-.316-0.1,0.371,0.371,0,0,1-.15-0.333,2.456,2.456,0,0,1,.866-1.642,27.976,27.976,0,0,1,2.867-2.375C148.042,146.867,147.956,147.044,147.817,147.333Zm8.841-6.283a16.064,16.064,0,0,0-1.55,1.458q-0.916.958-1.516,1.692,0.865-2.3,1.05-2.692a1.692,1.692,0,0,0,.183-0.508,0.225,0.225,0,0,0-.233-0.208,1.756,1.756,0,0,0-.384-0.034,0.307,0.307,0,0,0-.241.134,0.836,0.836,0,0,0-.125.225,1.636,1.636,0,0,0-.059.241,1.913,1.913,0,0,1-.1.342q-0.075.2-.416,1.175t-0.634,1.792q-0.291.816-.325,0.908a0.454,0.454,0,0,0-.033.142c0,0.033.05,0.05,0.15,0.05a2.631,2.631,0,0,0,.75-0.3,13.435,13.435,0,0,0,1.142-1.425,15.53,15.53,0,0,1,1.525-1.825,2.325,2.325,0,0,1,1.016-.65,0.114,0.114,0,0,1,.134.125,1.528,1.528,0,0,1-.225.525,11.194,11.194,0,0,0-.525,1.116,4.265,4.265,0,0,0-.25.792,3.649,3.649,0,0,0-.067.708,0.843,0.843,0,0,0,.233.609,1.136,1.136,0,0,0,.8.258,2.05,2.05,0,0,0,1.184-.425,8.253,8.253,0,0,0,1.25-1.125,6.538,6.538,0,0,0,.9-1.15,0.17,0.17,0,0,0,.033-0.092,0.126,0.126,0,0,0-.092-0.083,0.12,0.12,0,0,0-.158.042,8.029,8.029,0,0,1-1.242,1.358,7.64,7.64,0,0,1-1.208.933,0.512,0.512,0,0,1-.683-0.025,0.964,0.964,0,0,1-.134-0.608,3.448,3.448,0,0,1,.317-1.225,12.928,12.928,0,0,1,.567-1.167,2.634,2.634,0,0,0,.383-1.125,0.35,0.35,0,0,0-.383-0.408,1.973,1.973,0,0,0-1.034.45h0Z"/>
</svg>
